# xmcd
#
# Track frame offsets:
#	150
#	14263
#	39659
#	56158
#	74380
#	95317
#	110779
#	129104
#	145627
#	166500
#
# Disc length: 2540 seconds
#
# Revision: 0
# Processed by: cddbd v1.5.1PL2 Copyright (c) Steve Scherf et al.
# Submitted via: audiograbber 1.83.01
#
DISCID=7e09ea0a
DTITLE=Lefthand Freddy - Back On Track
DYEAR=2006
DGENRE=Blues
TTITLE0=Back On Track
TTITLE1=Bad Dope
TTITLE2=Number One
TTITLE3=Travel Blues
TTITLE4=Mama And Papa Boogie
TTITLE5=Be Who You Is
TTITLE6=Have To Make A Change
TTITLE7=Please Let Me In
TTITLE8=T Bone Blues
TTITLE9=Ride With Me
EXTD=
EXTT0=
EXTT1=
EXTT2=
EXTT3=
EXTT4=
EXTT5=
EXTT6=
EXTT7=
EXTT8=
EXTT9=
PLAYORDER=
